<?xml version="1.0" encoding="UTF-8" standalone="no"?>
<!DOCTYPE svg PUBLIC "-//W3C//DTD SVG 1.1//EN"
 "http://www.w3.org/Graphics/SVG/1.1/DTD/svg11.dtd">
<!-- Generated by graphviz version 2.28.0 (20110808.0907)
 -->
<!-- Title: G Pages: 1 -->
<svg width="464pt" height="2668pt"
 viewBox="0.00 0.00 464.00 2668.00" xmlns="http://www.w3.org/2000/svg" xmlns:xlink="http://www.w3.org/1999/xlink">
<g id="graph1" class="graph" transform="scale(1 1) rotate(0) translate(4 2664)">
<title>G</title>
<polygon fill="white" stroke="white" points="-4,5 -4,-2664 461,-2664 461,5 -4,5"/>
<g id="graph2" class="cluster"><title>cluster_</title>
<polyline fill="none" stroke="gray" points="272,-8 436,-8 "/>
<path fill="none" stroke="gray" d="M436,-8C442,-8 448,-14 448,-20"/>
<polyline fill="none" stroke="gray" points="448,-20 448,-2640 "/>
<path fill="none" stroke="gray" d="M448,-2640C448,-2646 442,-2652 436,-2652"/>
<polyline fill="none" stroke="gray" points="436,-2652 272,-2652 "/>
<path fill="none" stroke="gray" d="M272,-2652C266,-2652 260,-2646 260,-2640"/>
<polyline fill="none" stroke="gray" points="260,-2640 260,-20 "/>
<path fill="none" stroke="gray" d="M260,-20C260,-14 266,-8 272,-8"/>
</g>
<!-- \\CArrayContainer -->
<g id="node2" class="node"><title>\\CArrayContainer</title>
<a xlink:href="classes.CArrayContainer.html" xlink:title="CArrayContainer" target="_parent">
<polygon fill="none" stroke="black" points="412.5,-2590 295.5,-2590 295.5,-2554 412.5,-2554 412.5,-2590"/>
<text text-anchor="middle" x="354" y="-2568.6" font-family="Courier,monospace" font-size="11.00">CArrayContainer</text>
</a>
</g>
<!-- CContainer -->
<g id="node52" class="node"><title>CContainer</title>
<ellipse fill="none" stroke="black" cx="98" cy="-2599" rx="53.8318" ry="18"/>
<text text-anchor="middle" x="98" y="-2594.4" font-family="Times,serif" font-size="14.00" fill="gray">CContainer</text>
</g>
<!-- \\CArrayContainer&#45;&gt;CContainer -->
<g id="edge3" class="edge"><title>\\CArrayContainer&#45;&gt;CContainer</title>
<path fill="none" stroke="black" d="M295.363,-2578.13C254.883,-2582.43 200.841,-2588.17 159.699,-2592.55"/>
<polygon fill="none" stroke="black" points="159.107,-2589.09 149.533,-2593.63 159.847,-2596.05 159.107,-2589.09"/>
</g>
<!-- \\CArrayObject -->
<g id="node3" class="node"><title>\\CArrayObject</title>
<a xlink:href="classes.CArrayObject.html" xlink:title="CArrayObject" target="_parent">
<polygon fill="none" stroke="black" points="402.5,-2482 305.5,-2482 305.5,-2446 402.5,-2446 402.5,-2482"/>
<text text-anchor="middle" x="354" y="-2460.6" font-family="Courier,monospace" font-size="11.00">CArrayObject</text>
</a>
</g>
<!-- ArrayObject -->
<g id="node54" class="node"><title>ArrayObject</title>
<ellipse fill="none" stroke="black" cx="98" cy="-2464" rx="58.2231" ry="18"/>
<text text-anchor="middle" x="98" y="-2459.4" font-family="Times,serif" font-size="14.00" fill="gray">ArrayObject</text>
</g>
<!-- \\CArrayObject&#45;&gt;ArrayObject -->
<g id="edge5" class="edge"><title>\\CArrayObject&#45;&gt;ArrayObject</title>
<path fill="none" stroke="black" d="M305.225,-2464C266.244,-2464 210.683,-2464 167.052,-2464"/>
<polygon fill="none" stroke="black" points="166.803,-2460.5 156.803,-2464 166.803,-2467.5 166.803,-2460.5"/>
</g>
<!-- \\CAttribute -->
<g id="node4" class="node"><title>\\CAttribute</title>
<a xlink:href="classes.CAttribute.html" xlink:title="CAttribute" target="_parent">
<polygon fill="none" stroke="black" points="396,-2536 312,-2536 312,-2500 396,-2500 396,-2536"/>
<text text-anchor="middle" x="354" y="-2514.6" font-family="Courier,monospace" font-size="11.00">CAttribute</text>
</a>
</g>
<!-- \\CCodedUnitObject -->
<g id="node5" class="node"><title>\\CCodedUnitObject</title>
<a xlink:href="classes.CCodedUnitObject.html" xlink:title="CCodedUnitObject" target="_parent">
<polygon fill="none" stroke="black" points="416,-2428 292,-2428 292,-2392 416,-2392 416,-2428"/>
<text text-anchor="middle" x="354" y="-2406.6" font-family="Courier,monospace" font-size="11.00">CCodedUnitObject</text>
</a>
</g>
<!-- CRelatedUnitObject -->
<g id="node56" class="node"><title>CRelatedUnitObject</title>
<ellipse fill="none" stroke="black" cx="98" cy="-2369" rx="86.5717" ry="18"/>
<text text-anchor="middle" x="98" y="-2364.4" font-family="Times,serif" font-size="14.00" fill="gray">CRelatedUnitObject</text>
</g>
<!-- \\CCodedUnitObject&#45;&gt;CRelatedUnitObject -->
<g id="edge7" class="edge"><title>\\CCodedUnitObject&#45;&gt;CRelatedUnitObject</title>
<path fill="none" stroke="black" d="M291.837,-2400.13C257.354,-2394.56 213.919,-2387.55 177.005,-2381.59"/>
<polygon fill="none" stroke="black" points="177.21,-2378.08 166.78,-2379.94 176.094,-2384.99 177.21,-2378.08"/>
</g>
<!-- \\CContact -->
<g id="node6" class="node"><title>\\CContact</title>
<a xlink:href="classes.CContact.html" xlink:title="CContact" target="_parent">
<polygon fill="none" stroke="black" points="389,-2266 319,-2266 319,-2230 389,-2230 389,-2266"/>
<text text-anchor="middle" x="354" y="-2244.6" font-family="Courier,monospace" font-size="11.00">CContact</text>
</a>
</g>
<!-- CEntity -->
<g id="node58" class="node"><title>CEntity</title>
<ellipse fill="none" stroke="black" cx="98" cy="-2288" rx="40.5" ry="18"/>
<text text-anchor="middle" x="98" y="-2283.4" font-family="Times,serif" font-size="14.00" fill="gray">CEntity</text>
</g>
<!-- \\CContact&#45;&gt;CEntity -->
<g id="edge9" class="edge"><title>\\CContact&#45;&gt;CEntity</title>
<path fill="none" stroke="black" d="M318.744,-2253.39C274.278,-2260.4 196.459,-2272.65 146.361,-2280.54"/>
<polygon fill="none" stroke="black" points="145.755,-2277.09 136.421,-2282.11 146.844,-2284.01 145.755,-2277.09"/>
</g>
<!-- \\CContainer -->
<g id="node7" class="node"><title>\\CContainer</title>
<a xlink:href="classes.CContainer.html" xlink:title="CContainer" target="_parent">
<polygon fill="none" stroke="black" points="396,-2212 312,-2212 312,-2176 396,-2176 396,-2212"/>
<text text-anchor="middle" x="354" y="-2190.6" font-family="Courier,monospace" font-size="11.00">CContainer</text>
</a>
</g>
<!-- CObject -->
<g id="node60" class="node"><title>CObject</title>
<ellipse fill="none" stroke="black" cx="98" cy="-2194" rx="42.0247" ry="18"/>
<text text-anchor="middle" x="98" y="-2189.4" font-family="Times,serif" font-size="14.00" fill="gray">CObject</text>
</g>
<!-- \\CContainer&#45;&gt;CObject -->
<g id="edge11" class="edge"><title>\\CContainer&#45;&gt;CObject</title>
<path fill="none" stroke="black" d="M311.908,-2194C267.957,-2194 198.164,-2194 150.557,-2194"/>
<polygon fill="none" stroke="black" points="150.455,-2190.5 140.455,-2194 150.454,-2197.5 150.455,-2190.5"/>
</g>
<!-- \\CDataset -->
<g id="node8" class="node"><title>\\CDataset</title>
<a xlink:href="classes.CDataset.html" xlink:title="CDataset" target="_parent">
<polygon fill="none" stroke="black" points="389,-2374 319,-2374 319,-2338 389,-2338 389,-2374"/>
<text text-anchor="middle" x="354" y="-2352.6" font-family="Courier,monospace" font-size="11.00">CDataset</text>
</a>
</g>
<!-- \\CDataset&#45;&gt;CRelatedUnitObject -->
<g id="edge13" class="edge"><title>\\CDataset&#45;&gt;CRelatedUnitObject</title>
<path fill="none" stroke="black" d="M318.744,-2357.75C286.458,-2359.41 236.589,-2361.96 192.514,-2364.21"/>
<polygon fill="none" stroke="black" points="192.139,-2360.73 182.331,-2364.74 192.497,-2367.72 192.139,-2360.73"/>
</g>
<!-- \\CDatasetFile -->
<g id="node9" class="node"><title>\\CDatasetFile</title>
<a xlink:href="classes.CDatasetFile.html" xlink:title="CDatasetFile" target="_parent">
<polygon fill="none" stroke="black" points="402.5,-1888 305.5,-1888 305.5,-1852 402.5,-1852 402.5,-1888"/>
<text text-anchor="middle" x="354" y="-1866.6" font-family="Courier,monospace" font-size="11.00">CDatasetFile</text>
</a>
</g>
<!-- CArrayObject -->
<g id="node63" class="node"><title>CArrayObject</title>
<ellipse fill="none" stroke="black" cx="98" cy="-2005" rx="63.9567" ry="18"/>
<text text-anchor="middle" x="98" y="-2000.4" font-family="Times,serif" font-size="14.00" fill="gray">CArrayObject</text>
</g>
<!-- \\CDatasetFile&#45;&gt;CArrayObject -->
<g id="edge15" class="edge"><title>\\CDatasetFile&#45;&gt;CArrayObject</title>
<path fill="none" stroke="black" d="M305.135,-1880.86C290.316,-1885.02 274.168,-1890.39 260,-1897 210.656,-1920.03 159.377,-1957.09 128.317,-1981.24"/>
<polygon fill="none" stroke="black" points="125.811,-1978.76 120.111,-1987.69 130.136,-1984.26 125.811,-1978.76"/>
</g>
<!-- \\CDataType -->
<g id="node10" class="node"><title>\\CDataType</title>
<a xlink:href="classes.CDataType.html" xlink:title="CDataType" target="_parent">
<polygon fill="none" stroke="black" points="392.5,-2158 315.5,-2158 315.5,-2122 392.5,-2122 392.5,-2158"/>
<text text-anchor="middle" x="354" y="-2136.6" font-family="Courier,monospace" font-size="11.00">CDataType</text>
</a>
</g>
<!-- \\CDataType&#45;&gt;CArrayObject -->
<g id="edge17" class="edge"><title>\\CDataType&#45;&gt;CArrayObject</title>
<path fill="none" stroke="black" d="M315.385,-2131.89C298.066,-2127.46 277.52,-2121.18 260,-2113 210.656,-2089.97 159.377,-2052.91 128.317,-2028.76"/>
<polygon fill="none" stroke="black" points="130.136,-2025.74 120.111,-2022.31 125.811,-2031.24 130.136,-2025.74"/>
</g>
<!-- \\CDataTypeBinary -->
<g id="node11" class="node"><title>\\CDataTypeBinary</title>
<a xlink:href="classes.CDataTypeBinary.html" xlink:title="CDataTypeBinary" target="_parent">
<polygon fill="none" stroke="black" points="412.5,-1780 295.5,-1780 295.5,-1744 412.5,-1744 412.5,-1780"/>
<text text-anchor="middle" x="354" y="-1758.6" font-family="Courier,monospace" font-size="11.00">CDataTypeBinary</text>
</a>
</g>
<!-- CDataType -->
<g id="node66" class="node"><title>CDataType</title>
<ellipse fill="none" stroke="black" cx="98" cy="-1654" rx="54.1734" ry="18"/>
<text text-anchor="middle" x="98" y="-1649.4" font-family="Times,serif" font-size="14.00" fill="gray">CDataType</text>
</g>
<!-- \\CDataTypeBinary&#45;&gt;CDataType -->
<g id="edge19" class="edge"><title>\\CDataTypeBinary&#45;&gt;CDataType</title>
<path fill="none" stroke="black" d="M295.393,-1747.07C283.552,-1743.5 271.267,-1739.43 260,-1735 215.602,-1717.56 166.987,-1692.16 134.922,-1674.48"/>
<polygon fill="none" stroke="black" points="136.372,-1671.28 125.931,-1669.48 132.971,-1677.39 136.372,-1671.28"/>
</g>
<!-- \\CDataTypeInt32 -->
<g id="node12" class="node"><title>\\CDataTypeInt32</title>
<a xlink:href="classes.CDataTypeInt32.html" xlink:title="CDataTypeInt32" target="_parent">
<polygon fill="none" stroke="black" points="409.5,-1726 298.5,-1726 298.5,-1690 409.5,-1690 409.5,-1726"/>
<text text-anchor="middle" x="354" y="-1704.6" font-family="Courier,monospace" font-size="11.00">CDataTypeInt32</text>
</a>
</g>
<!-- \\CDataTypeInt32&#45;&gt;CDataType -->
<g id="edge21" class="edge"><title>\\CDataTypeInt32&#45;&gt;CDataType</title>
<path fill="none" stroke="black" d="M298.198,-1696.35C255.669,-1687.31 196.964,-1674.83 154.307,-1665.76"/>
<polygon fill="none" stroke="black" points="154.883,-1662.3 144.374,-1663.65 153.428,-1669.15 154.883,-1662.3"/>
</g>
<!-- \\CDataTypeInt64 -->
<g id="node13" class="node"><title>\\CDataTypeInt64</title>
<a xlink:href="classes.CDataTypeInt64.html" xlink:title="CDataTypeInt64" target="_parent">
<polygon fill="none" stroke="black" points="409.5,-1672 298.5,-1672 298.5,-1636 409.5,-1636 409.5,-1672"/>
<text text-anchor="middle" x="354" y="-1650.6" font-family="Courier,monospace" font-size="11.00">CDataTypeInt64</text>
</a>
</g>
<!-- \\CDataTypeInt64&#45;&gt;CDataType -->
<g id="edge23" class="edge"><title>\\CDataTypeInt64&#45;&gt;CDataType</title>
<path fill="none" stroke="black" d="M298.198,-1654C258.319,-1654 204.216,-1654 162.459,-1654"/>
<polygon fill="none" stroke="black" points="162.397,-1650.5 152.397,-1654 162.397,-1657.5 162.397,-1650.5"/>
</g>
<!-- \\CDataTypeMongoCode -->
<g id="node14" class="node"><title>\\CDataTypeMongoCode</title>
<a xlink:href="classes.CDataTypeMongoCode.html" xlink:title="CDataTypeMongoCode" target="_parent">
<polygon fill="none" stroke="black" points="423,-1618 285,-1618 285,-1582 423,-1582 423,-1618"/>
<text text-anchor="middle" x="354" y="-1596.6" font-family="Courier,monospace" font-size="11.00">CDataTypeMongoCode</text>
</a>
</g>
<!-- \\CDataTypeMongoCode&#45;&gt;CDataType -->
<g id="edge25" class="edge"><title>\\CDataTypeMongoCode&#45;&gt;CDataType</title>
<path fill="none" stroke="black" d="M284.933,-1614.47C244.06,-1623.16 192.722,-1634.07 154.353,-1642.23"/>
<polygon fill="none" stroke="black" points="153.448,-1638.85 144.394,-1644.35 154.903,-1645.69 153.448,-1638.85"/>
</g>
<!-- \\CDataTypeMongoId -->
<g id="node15" class="node"><title>\\CDataTypeMongoId</title>
<a xlink:href="classes.CDataTypeMongoId.html" xlink:title="CDataTypeMongoId" target="_parent">
<polygon fill="none" stroke="black" points="416,-1564 292,-1564 292,-1528 416,-1528 416,-1564"/>
<text text-anchor="middle" x="354" y="-1542.6" font-family="Courier,monospace" font-size="11.00">CDataTypeMongoId</text>
</a>
</g>
<!-- \\CDataTypeMongoId&#45;&gt;CDataType -->
<g id="edge27" class="edge"><title>\\CDataTypeMongoId&#45;&gt;CDataType</title>
<path fill="none" stroke="black" d="M291.928,-1561.99C281.173,-1565.3 270.171,-1569 260,-1573 215.602,-1590.44 166.987,-1615.84 134.922,-1633.52"/>
<polygon fill="none" stroke="black" points="132.971,-1630.61 125.931,-1638.52 136.372,-1636.72 132.971,-1630.61"/>
</g>
<!-- \\CDataTypeRegex -->
<g id="node16" class="node"><title>\\CDataTypeRegex</title>
<a xlink:href="classes.CDataTypeRegex.html" xlink:title="CDataTypeRegex" target="_parent">
<polygon fill="none" stroke="black" points="409.5,-1510 298.5,-1510 298.5,-1474 409.5,-1474 409.5,-1510"/>
<text text-anchor="middle" x="354" y="-1488.6" font-family="Courier,monospace" font-size="11.00">CDataTypeRegex</text>
</a>
</g>
<!-- \\CDataTypeRegex&#45;&gt;CDataType -->
<g id="edge29" class="edge"><title>\\CDataTypeRegex&#45;&gt;CDataType</title>
<path fill="none" stroke="black" d="M298.396,-1503.76C285.398,-1507.66 271.866,-1512.67 260,-1519 204.756,-1548.48 151.208,-1599.12 121.922,-1629.3"/>
<polygon fill="none" stroke="black" points="119.061,-1627.22 114.668,-1636.86 124.114,-1632.07 119.061,-1627.22"/>
</g>
<!-- \\CDataTypeStamp -->
<g id="node17" class="node"><title>\\CDataTypeStamp</title>
<a xlink:href="classes.CDataTypeStamp.html" xlink:title="CDataTypeStamp" target="_parent">
<polygon fill="none" stroke="black" points="409.5,-1834 298.5,-1834 298.5,-1798 409.5,-1798 409.5,-1834"/>
<text text-anchor="middle" x="354" y="-1812.6" font-family="Courier,monospace" font-size="11.00">CDataTypeStamp</text>
</a>
</g>
<!-- \\CDataTypeStamp&#45;&gt;CDataType -->
<g id="edge31" class="edge"><title>\\CDataTypeStamp&#45;&gt;CDataType</title>
<path fill="none" stroke="black" d="M298.396,-1804.24C285.398,-1800.34 271.866,-1795.33 260,-1789 204.756,-1759.52 151.208,-1708.88 121.922,-1678.7"/>
<polygon fill="none" stroke="black" points="124.114,-1675.93 114.668,-1671.14 119.061,-1680.78 124.114,-1675.93"/>
</g>
<!-- \\CDataWrapper -->
<g id="node18" class="node"><title>\\CDataWrapper</title>
<a xlink:href="classes.CDataWrapper.html" xlink:title="CDataWrapper" target="_parent">
<polygon fill="none" stroke="black" points="402.5,-1456 305.5,-1456 305.5,-1420 402.5,-1420 402.5,-1456"/>
<text text-anchor="middle" x="354" y="-1434.6" font-family="Courier,monospace" font-size="11.00">CDataWrapper</text>
</a>
</g>
<!-- CWrapper -->
<g id="node74" class="node"><title>CWrapper</title>
<ellipse fill="none" stroke="black" cx="98" cy="-1438" rx="49.7818" ry="18"/>
<text text-anchor="middle" x="98" y="-1433.4" font-family="Times,serif" font-size="14.00" fill="gray">CWrapper</text>
</g>
<!-- \\CDataWrapper&#45;&gt;CWrapper -->
<g id="edge33" class="edge"><title>\\CDataWrapper&#45;&gt;CWrapper</title>
<path fill="none" stroke="black" d="M305.225,-1438C263.495,-1438 202.765,-1438 158.01,-1438"/>
<polygon fill="none" stroke="black" points="157.859,-1434.5 147.859,-1438 157.859,-1441.5 157.859,-1434.5"/>
</g>
<!-- \\CDataWrapperClient -->
<g id="node19" class="node"><title>\\CDataWrapperClient</title>
<a xlink:href="classes.CDataWrapperClient.html" xlink:title="CDataWrapperClient" target="_parent">
<polygon fill="none" stroke="black" points="423,-1402 285,-1402 285,-1366 423,-1366 423,-1402"/>
<text text-anchor="middle" x="354" y="-1380.6" font-family="Courier,monospace" font-size="11.00">CDataWrapperClient</text>
</a>
</g>
<!-- CWrapperClient -->
<g id="node76" class="node"><title>CWrapperClient</title>
<ellipse fill="none" stroke="black" cx="98" cy="-1384" rx="72.3972" ry="18"/>
<text text-anchor="middle" x="98" y="-1379.4" font-family="Times,serif" font-size="14.00" fill="gray">CWrapperClient</text>
</g>
<!-- \\CDataWrapperClient&#45;&gt;CWrapperClient -->
<g id="edge35" class="edge"><title>\\CDataWrapperClient&#45;&gt;CWrapperClient</title>
<path fill="none" stroke="black" d="M284.933,-1384C252.971,-1384 214.611,-1384 181.057,-1384"/>
<polygon fill="none" stroke="black" points="180.81,-1380.5 170.81,-1384 180.81,-1387.5 180.81,-1380.5"/>
</g>
<!-- \\CEntity -->
<g id="node20" class="node"><title>\\CEntity</title>
<a xlink:href="classes.CEntity.html" xlink:title="CEntity" target="_parent">
<polygon fill="none" stroke="black" points="386,-1294 322,-1294 322,-1258 386,-1258 386,-1294"/>
<text text-anchor="middle" x="354" y="-1272.6" font-family="Courier,monospace" font-size="11.00">CEntity</text>
</a>
</g>
<!-- CCodedUnitObject -->
<g id="node78" class="node"><title>CCodedUnitObject</title>
<ellipse fill="none" stroke="black" cx="98" cy="-1303" rx="83.3639" ry="18"/>
<text text-anchor="middle" x="98" y="-1298.4" font-family="Times,serif" font-size="14.00" fill="gray">CCodedUnitObject</text>
</g>
<!-- \\CEntity&#45;&gt;CCodedUnitObject -->
<g id="edge37" class="edge"><title>\\CEntity&#45;&gt;CCodedUnitObject</title>
<path fill="none" stroke="black" d="M321.855,-1279.31C287.473,-1282.97 230.684,-1289 183.039,-1294.07"/>
<polygon fill="none" stroke="black" points="182.596,-1290.59 173.022,-1295.13 183.336,-1297.55 182.596,-1290.59"/>
</g>
<!-- \\CException -->
<g id="node21" class="node"><title>\\CException</title>
<a xlink:href="classes.CException.html" xlink:title="CException" target="_parent">
<polygon fill="none" stroke="black" points="396,-1240 312,-1240 312,-1204 396,-1204 396,-1240"/>
<text text-anchor="middle" x="354" y="-1218.6" font-family="Courier,monospace" font-size="11.00">CException</text>
</a>
</g>
<!-- Exception -->
<g id="node80" class="node"><title>Exception</title>
<ellipse fill="none" stroke="black" cx="98" cy="-1222" rx="48.9398" ry="18"/>
<text text-anchor="middle" x="98" y="-1217.4" font-family="Times,serif" font-size="14.00" fill="gray">Exception</text>
</g>
<!-- \\CException&#45;&gt;Exception -->
<g id="edge39" class="edge"><title>\\CException&#45;&gt;Exception</title>
<path fill="none" stroke="black" d="M311.908,-1222C270.05,-1222 204.752,-1222 157.504,-1222"/>
<polygon fill="none" stroke="black" points="157.411,-1218.5 147.411,-1222 157.411,-1225.5 157.411,-1218.5"/>
</g>
<!-- \\CFAOInstitute -->
<g id="node22" class="node"><title>\\CFAOInstitute</title>
<a xlink:href="classes.CFAOInstitute.html" xlink:title="CFAOInstitute" target="_parent">
<polygon fill="none" stroke="black" points="406,-1186 302,-1186 302,-1150 406,-1150 406,-1186"/>
<text text-anchor="middle" x="354" y="-1164.6" font-family="Courier,monospace" font-size="11.00">CFAOInstitute</text>
</a>
</g>
<!-- CInstitute -->
<g id="node82" class="node"><title>CInstitute</title>
<ellipse fill="none" stroke="black" cx="98" cy="-1168" rx="47.7568" ry="18"/>
<text text-anchor="middle" x="98" y="-1163.4" font-family="Times,serif" font-size="14.00" fill="gray">CInstitute</text>
</g>
<!-- \\CFAOInstitute&#45;&gt;CInstitute -->
<g id="edge41" class="edge"><title>\\CFAOInstitute&#45;&gt;CInstitute</title>
<path fill="none" stroke="black" d="M301.905,-1168C259.658,-1168 199.712,-1168 155.933,-1168"/>
<polygon fill="none" stroke="black" points="155.734,-1164.5 145.734,-1168 155.734,-1171.5 155.734,-1164.5"/>
</g>
<!-- \\CGraphEdge -->
<g id="node23" class="node"><title>\\CGraphEdge</title>
<a xlink:href="classes.CGraphEdge.html" xlink:title="CGraphEdge" target="_parent">
<polygon fill="none" stroke="black" points="396,-1132 312,-1132 312,-1096 396,-1096 396,-1132"/>
<text text-anchor="middle" x="354" y="-1110.6" font-family="Courier,monospace" font-size="11.00">CGraphEdge</text>
</a>
</g>
<!-- CGraphNode -->
<g id="node84" class="node"><title>CGraphNode</title>
<ellipse fill="none" stroke="black" cx="98" cy="-1087" rx="61.0893" ry="18"/>
<text text-anchor="middle" x="98" y="-1082.4" font-family="Times,serif" font-size="14.00" fill="gray">CGraphNode</text>
</g>
<!-- \\CGraphEdge&#45;&gt;CGraphNode -->
<g id="edge43" class="edge"><title>\\CGraphEdge&#45;&gt;CGraphNode</title>
<path fill="none" stroke="black" d="M311.908,-1109.63C272.404,-1105.43 212.024,-1099.01 165.641,-1094.08"/>
<polygon fill="none" stroke="black" points="165.984,-1090.6 155.67,-1093.02 165.244,-1097.56 165.984,-1090.6"/>
</g>
<!-- \\CGraphNode -->
<g id="node24" class="node"><title>\\CGraphNode</title>
<a xlink:href="classes.CGraphNode.html" xlink:title="CGraphNode" target="_parent">
<polygon fill="none" stroke="black" points="396,-916 312,-916 312,-880 396,-880 396,-916"/>
<text text-anchor="middle" x="354" y="-894.6" font-family="Courier,monospace" font-size="11.00">CGraphNode</text>
</a>
</g>
<!-- CPersistentObject -->
<g id="node86" class="node"><title>CPersistentObject</title>
<ellipse fill="none" stroke="black" cx="98" cy="-925" rx="78.472" ry="18"/>
<text text-anchor="middle" x="98" y="-920.4" font-family="Times,serif" font-size="14.00" fill="gray">CPersistentObject</text>
</g>
<!-- \\CGraphNode&#45;&gt;CPersistentObject -->
<g id="edge45" class="edge"><title>\\CGraphNode&#45;&gt;CPersistentObject</title>
<path fill="none" stroke="black" d="M311.908,-902.368C276.282,-906.155 223.678,-911.747 179.672,-916.425"/>
<polygon fill="none" stroke="black" points="179.132,-912.962 169.558,-917.5 179.872,-919.923 179.132,-912.962"/>
</g>
<!-- \\CInstitute -->
<g id="node25" class="node"><title>\\CInstitute</title>
<a xlink:href="classes.CInstitute.html" xlink:title="CInstitute" target="_parent">
<polygon fill="none" stroke="black" points="396,-862 312,-862 312,-826 396,-826 396,-862"/>
<text text-anchor="middle" x="354" y="-840.6" font-family="Courier,monospace" font-size="11.00">CInstitute</text>
</a>
</g>
<!-- CContact -->
<g id="node88" class="node"><title>CContact</title>
<ellipse fill="none" stroke="black" cx="98" cy="-844" rx="46.0742" ry="18"/>
<text text-anchor="middle" x="98" y="-839.4" font-family="Times,serif" font-size="14.00" fill="gray">CContact</text>
</g>
<!-- \\CInstitute&#45;&gt;CContact -->
<g id="edge47" class="edge"><title>\\CInstitute&#45;&gt;CContact</title>
<path fill="none" stroke="black" d="M311.908,-844C269.134,-844 201.884,-844 154.429,-844"/>
<polygon fill="none" stroke="black" points="154.32,-840.5 144.32,-844 154.32,-847.5 154.32,-840.5"/>
</g>
<!-- \\CMailAddress -->
<g id="node26" class="node"><title>\\CMailAddress</title>
<a xlink:href="classes.CMailAddress.html" xlink:title="CMailAddress" target="_parent">
<polygon fill="none" stroke="black" points="402.5,-2104 305.5,-2104 305.5,-2068 402.5,-2068 402.5,-2104"/>
<text text-anchor="middle" x="354" y="-2082.6" font-family="Courier,monospace" font-size="11.00">CMailAddress</text>
</a>
</g>
<!-- \\CMailAddress&#45;&gt;CArrayObject -->
<g id="edge49" class="edge"><title>\\CMailAddress&#45;&gt;CArrayObject</title>
<path fill="none" stroke="black" d="M305.097,-2072.5C290.574,-2068.3 274.602,-2063.57 260,-2059 222.387,-2047.24 180.158,-2033.04 148.388,-2022.15"/>
<polygon fill="none" stroke="black" points="149.476,-2018.82 138.881,-2018.88 147.201,-2025.44 149.476,-2018.82"/>
</g>
<!-- \\CMongoContainer -->
<g id="node27" class="node"><title>\\CMongoContainer</title>
<a xlink:href="classes.CMongoContainer.html" xlink:title="CMongoContainer" target="_parent">
<polygon fill="none" stroke="black" points="412.5,-2644 295.5,-2644 295.5,-2608 412.5,-2608 412.5,-2644"/>
<text text-anchor="middle" x="354" y="-2622.6" font-family="Courier,monospace" font-size="11.00">CMongoContainer</text>
</a>
</g>
<!-- \\CMongoContainer&#45;&gt;CContainer -->
<g id="edge51" class="edge"><title>\\CMongoContainer&#45;&gt;CContainer</title>
<path fill="none" stroke="black" d="M295.363,-2619.87C254.883,-2615.57 200.841,-2609.83 159.699,-2605.45"/>
<polygon fill="none" stroke="black" points="159.847,-2601.95 149.533,-2604.37 159.107,-2608.91 159.847,-2601.95"/>
</g>
<!-- \\CMongoDataWrapper -->
<g id="node28" class="node"><title>\\CMongoDataWrapper</title>
<a xlink:href="classes.CMongoDataWrapper.html" xlink:title="CMongoDataWrapper" target="_parent">
<polygon fill="none" stroke="black" points="419.5,-808 288.5,-808 288.5,-772 419.5,-772 419.5,-808"/>
<text text-anchor="middle" x="354" y="-786.6" font-family="Courier,monospace" font-size="11.00">CMongoDataWrapper</text>
</a>
</g>
<!-- CDataWrapper -->
<g id="node92" class="node"><title>CDataWrapper</title>
<ellipse fill="none" stroke="black" cx="98" cy="-790" rx="67.5066" ry="18"/>
<text text-anchor="middle" x="98" y="-785.4" font-family="Times,serif" font-size="14.00" fill="gray">CDataWrapper</text>
</g>
<!-- \\CMongoDataWrapper&#45;&gt;CDataWrapper -->
<g id="edge53" class="edge"><title>\\CMongoDataWrapper&#45;&gt;CDataWrapper</title>
<path fill="none" stroke="black" d="M288.248,-790C254.135,-790 212.062,-790 176.255,-790"/>
<polygon fill="none" stroke="black" points="175.848,-786.5 165.848,-790 175.848,-793.5 175.848,-786.5"/>
</g>
<!-- \\CMongoDataWrapperClient -->
<g id="node29" class="node"><title>\\CMongoDataWrapperClient</title>
<a xlink:href="classes.CMongoDataWrapperClient.html" xlink:title="CMongoDataWrapperClient" target="_parent">
<polygon fill="none" stroke="black" points="439.5,-754 268.5,-754 268.5,-718 439.5,-718 439.5,-754"/>
<text text-anchor="middle" x="354" y="-732.6" font-family="Courier,monospace" font-size="11.00">CMongoDataWrapperClient</text>
</a>
</g>
<!-- CDataWrapperClient -->
<g id="node94" class="node"><title>CDataWrapperClient</title>
<ellipse fill="none" stroke="black" cx="98" cy="-709" rx="89.78" ry="18"/>
<text text-anchor="middle" x="98" y="-704.4" font-family="Times,serif" font-size="14.00" fill="gray">CDataWrapperClient</text>
</g>
<!-- \\CMongoDataWrapperClient&#45;&gt;CDataWrapperClient -->
<g id="edge55" class="edge"><title>\\CMongoDataWrapperClient&#45;&gt;CDataWrapperClient</title>
<path fill="none" stroke="black" d="M268.422,-727.009C242.559,-724.26 214.045,-721.229 187.903,-718.45"/>
<polygon fill="none" stroke="black" points="187.944,-714.935 177.63,-717.358 187.204,-721.896 187.944,-714.935"/>
</g>
<!-- \\CMongoGridContainer -->
<g id="node30" class="node"><title>\\CMongoGridContainer</title>
<a xlink:href="classes.CMongoGridContainer.html" xlink:title="CMongoGridContainer" target="_parent">
<polygon fill="none" stroke="black" points="426,-646 282,-646 282,-610 426,-610 426,-646"/>
<text text-anchor="middle" x="354" y="-624.6" font-family="Courier,monospace" font-size="11.00">CMongoGridContainer</text>
</a>
</g>
<!-- CMongoContainer -->
<g id="node96" class="node"><title>CMongoContainer</title>
<ellipse fill="none" stroke="black" cx="98" cy="-628" rx="81.3389" ry="18"/>
<text text-anchor="middle" x="98" y="-623.4" font-family="Times,serif" font-size="14.00" fill="gray">CMongoContainer</text>
</g>
<!-- \\CMongoGridContainer&#45;&gt;CMongoContainer -->
<g id="edge57" class="edge"><title>\\CMongoGridContainer&#45;&gt;CMongoContainer</title>
<path fill="none" stroke="black" d="M281.909,-628C253.296,-628 219.953,-628 189.63,-628"/>
<polygon fill="none" stroke="black" points="189.474,-624.5 179.474,-628 189.474,-631.5 189.474,-624.5"/>
</g>
<!-- \\CMongoQuery -->
<g id="node31" class="node"><title>\\CMongoQuery</title>
<a xlink:href="classes.CMongoQuery.html" xlink:title="CMongoQuery" target="_parent">
<polygon fill="none" stroke="black" points="399.5,-592 308.5,-592 308.5,-556 399.5,-556 399.5,-592"/>
<text text-anchor="middle" x="354" y="-570.6" font-family="Courier,monospace" font-size="11.00">CMongoQuery</text>
</a>
</g>
<!-- CQuery -->
<g id="node98" class="node"><title>CQuery</title>
<ellipse fill="none" stroke="black" cx="98" cy="-574" rx="40.8402" ry="18"/>
<text text-anchor="middle" x="98" y="-569.4" font-family="Times,serif" font-size="14.00" fill="gray">CQuery</text>
</g>
<!-- \\CMongoQuery&#45;&gt;CQuery -->
<g id="edge59" class="edge"><title>\\CMongoQuery&#45;&gt;CQuery</title>
<path fill="none" stroke="black" d="M308.466,-574C264.022,-574 195.839,-574 149.428,-574"/>
<polygon fill="none" stroke="black" points="149.291,-570.5 139.291,-574 149.291,-577.5 149.291,-570.5"/>
</g>
<!-- \\CObject -->
<g id="node32" class="node"><title>\\CObject</title>
<a xlink:href="classes.CObject.html" xlink:title="CObject" target="_parent">
<polygon fill="none" stroke="black" points="386,-1024 322,-1024 322,-988 386,-988 386,-1024"/>
<text text-anchor="middle" x="354" y="-1002.6" font-family="Courier,monospace" font-size="11.00">CObject</text>
</a>
</g>
<!-- \\COntologyEdge -->
<g id="node33" class="node"><title>\\COntologyEdge</title>
<a xlink:href="classes.COntologyEdge.html" xlink:title="COntologyEdge" target="_parent">
<polygon fill="none" stroke="black" points="406,-538 302,-538 302,-502 406,-502 406,-538"/>
<text text-anchor="middle" x="354" y="-516.6" font-family="Courier,monospace" font-size="11.00">COntologyEdge</text>
</a>
</g>
<!-- CGraphEdge -->
<g id="node100" class="node"><title>CGraphEdge</title>
<ellipse fill="none" stroke="black" cx="98" cy="-520" rx="60.2479" ry="18"/>
<text text-anchor="middle" x="98" y="-515.4" font-family="Times,serif" font-size="14.00" fill="gray">CGraphEdge</text>
</g>
<!-- \\COntologyEdge&#45;&gt;CGraphEdge -->
<g id="edge61" class="edge"><title>\\COntologyEdge&#45;&gt;CGraphEdge</title>
<path fill="none" stroke="black" d="M301.905,-520C263.629,-520 210.823,-520 168.677,-520"/>
<polygon fill="none" stroke="black" points="168.483,-516.5 158.483,-520 168.483,-523.5 168.483,-516.5"/>
</g>
<!-- \\COntologyEdgeIndex -->
<g id="node34" class="node"><title>\\COntologyEdgeIndex</title>
<a xlink:href="classes.COntologyEdgeIndex.html" xlink:title="COntologyEdgeIndex" target="_parent">
<polygon fill="none" stroke="black" points="423,-484 285,-484 285,-448 423,-448 423,-484"/>
<text text-anchor="middle" x="354" y="-462.6" font-family="Courier,monospace" font-size="11.00">COntologyEdgeIndex</text>
</a>
</g>
<!-- COntologyNodeIndex -->
<g id="node102" class="node"><title>COntologyNodeIndex</title>
<ellipse fill="none" stroke="black" cx="98" cy="-466" rx="93.8298" ry="18"/>
<text text-anchor="middle" x="98" y="-461.4" font-family="Times,serif" font-size="14.00" fill="gray">COntologyNodeIndex</text>
</g>
<!-- \\COntologyEdgeIndex&#45;&gt;COntologyNodeIndex -->
<g id="edge63" class="edge"><title>\\COntologyEdgeIndex&#45;&gt;COntologyNodeIndex</title>
<path fill="none" stroke="black" d="M284.933,-466C259.543,-466 230.115,-466 202.266,-466"/>
<polygon fill="none" stroke="black" points="202.087,-462.5 192.087,-466 202.087,-469.5 202.087,-462.5"/>
</g>
<!-- \\COntologyNode -->
<g id="node35" class="node"><title>\\COntologyNode</title>
<a xlink:href="classes.COntologyNode.html" xlink:title="COntologyNode" target="_parent">
<polygon fill="none" stroke="black" points="406,-1078 302,-1078 302,-1042 406,-1042 406,-1078"/>
<text text-anchor="middle" x="354" y="-1056.6" font-family="Courier,monospace" font-size="11.00">COntologyNode</text>
</a>
</g>
<!-- \\COntologyNode&#45;&gt;CGraphNode -->
<g id="edge65" class="edge"><title>\\COntologyNode&#45;&gt;CGraphNode</title>
<path fill="none" stroke="black" d="M301.905,-1065.43C262.743,-1069.59 208.372,-1075.37 165.768,-1079.9"/>
<polygon fill="none" stroke="black" points="165.337,-1076.43 155.763,-1080.97 166.077,-1083.39 165.337,-1076.43"/>
</g>
<!-- \\COntologyNodeIndex -->
<g id="node36" class="node"><title>\\COntologyNodeIndex</title>
<a xlink:href="classes.COntologyNodeIndex.html" xlink:title="COntologyNodeIndex" target="_parent">
<polygon fill="none" stroke="black" points="423,-1996 285,-1996 285,-1960 423,-1960 423,-1996"/>
<text text-anchor="middle" x="354" y="-1974.6" font-family="Courier,monospace" font-size="11.00">COntologyNodeIndex</text>
</a>
</g>
<!-- \\COntologyNodeIndex&#45;&gt;CArrayObject -->
<g id="edge67" class="edge"><title>\\COntologyNodeIndex&#45;&gt;CArrayObject</title>
<path fill="none" stroke="black" d="M284.933,-1985.24C248.8,-1989.08 204.491,-1993.79 168.191,-1997.65"/>
<polygon fill="none" stroke="black" points="167.753,-1994.17 158.179,-1998.71 168.493,-2001.13 167.753,-1994.17"/>
</g>
<!-- \\COntologyTag -->
<g id="node37" class="node"><title>\\COntologyTag</title>
<a xlink:href="classes.COntologyTag.html" xlink:title="COntologyTag" target="_parent">
<polygon fill="none" stroke="black" points="402.5,-376 305.5,-376 305.5,-340 402.5,-340 402.5,-376"/>
<text text-anchor="middle" x="354" y="-354.6" font-family="Courier,monospace" font-size="11.00">COntologyTag</text>
</a>
</g>
<!-- COntologyTermObject -->
<g id="node106" class="node"><title>COntologyTermObject</title>
<ellipse fill="none" stroke="black" cx="98" cy="-385" rx="97.0385" ry="18"/>
<text text-anchor="middle" x="98" y="-380.4" font-family="Times,serif" font-size="14.00" fill="gray">COntologyTermObject</text>
</g>
<!-- \\COntologyTag&#45;&gt;COntologyTermObject -->
<g id="edge69" class="edge"><title>\\COntologyTag&#45;&gt;COntologyTermObject</title>
<path fill="none" stroke="black" d="M305.225,-363.078C273.63,-366.437 231.144,-370.953 192.946,-375.014"/>
<polygon fill="none" stroke="black" points="192.393,-371.553 182.819,-376.09 193.133,-378.513 192.393,-371.553"/>
</g>
<!-- \\COntologyTerm -->
<g id="node38" class="node"><title>\\COntologyTerm</title>
<a xlink:href="classes.COntologyTerm.html" xlink:title="COntologyTerm" target="_parent">
<polygon fill="none" stroke="black" points="406,-430 302,-430 302,-394 406,-394 406,-430"/>
<text text-anchor="middle" x="354" y="-408.6" font-family="Courier,monospace" font-size="11.00">COntologyTerm</text>
</a>
</g>
<!-- \\COntologyTerm&#45;&gt;COntologyTermObject -->
<g id="edge71" class="edge"><title>\\COntologyTerm&#45;&gt;COntologyTermObject</title>
<path fill="none" stroke="black" d="M301.905,-406.569C270.72,-403.254 229.892,-398.914 193.04,-394.996"/>
<polygon fill="none" stroke="black" points="193.077,-391.481 182.763,-393.904 192.337,-398.441 193.077,-391.481"/>
</g>
<!-- \\COntologyTermObject -->
<g id="node39" class="node"><title>\\COntologyTermObject</title>
<a xlink:href="classes.COntologyTermObject.html" xlink:title="COntologyTermObject" target="_parent">
<polygon fill="none" stroke="black" points="426,-1348 282,-1348 282,-1312 426,-1312 426,-1348"/>
<text text-anchor="middle" x="354" y="-1326.6" font-family="Courier,monospace" font-size="11.00">COntologyTermObject</text>
</a>
</g>
<!-- \\COntologyTermObject&#45;&gt;CCodedUnitObject -->
<g id="edge73" class="edge"><title>\\COntologyTermObject&#45;&gt;CCodedUnitObject</title>
<path fill="none" stroke="black" d="M281.909,-1322.44C251.318,-1319.19 215.319,-1315.36 183.386,-1311.97"/>
<polygon fill="none" stroke="black" points="183.487,-1308.46 173.173,-1310.88 182.747,-1315.42 183.487,-1308.46"/>
</g>
<!-- \\CPersistentObject -->
<g id="node40" class="node"><title>\\CPersistentObject</title>
<a xlink:href="classes.CPersistentObject.html" xlink:title="CPersistentObject" target="_parent">
<polygon fill="none" stroke="black" points="419.5,-322 288.5,-322 288.5,-286 419.5,-286 419.5,-322"/>
<text text-anchor="middle" x="354" y="-300.6" font-family="Courier,monospace" font-size="11.00">CPersistentObject</text>
</a>
</g>
<!-- CStatusObject -->
<g id="node110" class="node"><title>CStatusObject</title>
<ellipse fill="none" stroke="black" cx="98" cy="-223" rx="65.1392" ry="18"/>
<text text-anchor="middle" x="98" y="-218.4" font-family="Times,serif" font-size="14.00" fill="gray">CStatusObject</text>
</g>
<!-- \\CPersistentObject&#45;&gt;CStatusObject -->
<g id="edge75" class="edge"><title>\\CPersistentObject&#45;&gt;CStatusObject</title>
<path fill="none" stroke="black" d="M289.612,-285.975C279.681,-283.042 269.547,-279.986 260,-277 222.515,-265.278 180.444,-251.132 148.712,-240.26"/>
<polygon fill="none" stroke="black" points="149.807,-236.936 139.212,-236.998 147.533,-243.556 149.807,-236.936"/>
</g>
<!-- \\CPersistentUnitObject -->
<g id="node41" class="node"><title>\\CPersistentUnitObject</title>
<a xlink:href="classes.CPersistentUnitObject.html" xlink:title="CPersistentUnitObject" target="_parent">
<polygon fill="none" stroke="black" points="433,-970 275,-970 275,-934 433,-934 433,-970"/>
<text text-anchor="middle" x="354" y="-948.6" font-family="Courier,monospace" font-size="11.00">CPersistentUnitObject</text>
</a>
</g>
<!-- \\CPersistentUnitObject&#45;&gt;CPersistentObject -->
<g id="edge77" class="edge"><title>\\CPersistentUnitObject&#45;&gt;CPersistentObject</title>
<path fill="none" stroke="black" d="M274.719,-943.679C244.598,-940.477 210.168,-936.817 179.813,-933.59"/>
<polygon fill="none" stroke="black" points="180.001,-930.091 169.687,-932.514 179.261,-937.052 180.001,-930.091"/>
</g>
<!-- \\CQuery -->
<g id="node42" class="node"><title>\\CQuery</title>
<a xlink:href="classes.CQuery.html" xlink:title="CQuery" target="_parent">
<polygon fill="none" stroke="black" points="382.5,-214 325.5,-214 325.5,-178 382.5,-178 382.5,-214"/>
<text text-anchor="middle" x="354" y="-192.6" font-family="Courier,monospace" font-size="11.00">CQuery</text>
</a>
</g>
<!-- \\CQuery&#45;&gt;CStatusObject -->
<g id="edge79" class="edge"><title>\\CQuery&#45;&gt;CStatusObject</title>
<path fill="none" stroke="black" d="M325.334,-198.941C288.147,-202.894 220.752,-210.058 169.142,-215.544"/>
<polygon fill="none" stroke="black" points="168.618,-212.08 159.044,-216.617 169.358,-219.041 168.618,-212.08"/>
</g>
<!-- \\CQueryStatement -->
<g id="node43" class="node"><title>\\CQueryStatement</title>
<a xlink:href="classes.CQueryStatement.html" xlink:title="CQueryStatement" target="_parent">
<polygon fill="none" stroke="black" points="412.5,-1942 295.5,-1942 295.5,-1906 412.5,-1906 412.5,-1942"/>
<text text-anchor="middle" x="354" y="-1920.6" font-family="Courier,monospace" font-size="11.00">CQueryStatement</text>
</a>
</g>
<!-- \\CQueryStatement&#45;&gt;CArrayObject -->
<g id="edge81" class="edge"><title>\\CQueryStatement&#45;&gt;CArrayObject</title>
<path fill="none" stroke="black" d="M295.342,-1940.34C283.62,-1943.77 271.393,-1947.44 260,-1951 222.387,-1962.76 180.158,-1976.96 148.388,-1987.85"/>
<polygon fill="none" stroke="black" points="147.201,-1984.56 138.881,-1991.12 149.476,-1991.18 147.201,-1984.56"/>
</g>
<!-- \\CRelatedUnitObject -->
<g id="node44" class="node"><title>\\CRelatedUnitObject</title>
<a xlink:href="classes.CRelatedUnitObject.html" xlink:title="CRelatedUnitObject" target="_parent">
<polygon fill="none" stroke="black" points="423,-106 285,-106 285,-70 423,-70 423,-106"/>
<text text-anchor="middle" x="354" y="-84.6" font-family="Courier,monospace" font-size="11.00">CRelatedUnitObject</text>
</a>
</g>
<!-- CPersistentUnitObject -->
<g id="node115" class="node"><title>CPersistentUnitObject</title>
<ellipse fill="none" stroke="black" cx="98" cy="-88" rx="94.6714" ry="18"/>
<text text-anchor="middle" x="98" y="-83.4" font-family="Times,serif" font-size="14.00" fill="gray">CPersistentUnitObject</text>
</g>
<!-- \\CRelatedUnitObject&#45;&gt;CPersistentUnitObject -->
<g id="edge83" class="edge"><title>\\CRelatedUnitObject&#45;&gt;CPersistentUnitObject</title>
<path fill="none" stroke="black" d="M284.933,-88C259.804,-88 230.721,-88 203.127,-88"/>
<polygon fill="none" stroke="black" points="203.039,-84.5001 193.039,-88 203.039,-91.5001 203.039,-84.5001"/>
</g>
<!-- \\CStatusObject -->
<g id="node45" class="node"><title>\\CStatusObject</title>
<a xlink:href="classes.CStatusObject.html" xlink:title="CStatusObject" target="_parent">
<polygon fill="none" stroke="black" points="406,-2050 302,-2050 302,-2014 406,-2014 406,-2050"/>
<text text-anchor="middle" x="354" y="-2028.6" font-family="Courier,monospace" font-size="11.00">CStatusObject</text>
</a>
</g>
<!-- \\CStatusObject&#45;&gt;CArrayObject -->
<g id="edge85" class="edge"><title>\\CStatusObject&#45;&gt;CArrayObject</title>
<path fill="none" stroke="black" d="M301.905,-2026.57C263.495,-2022.49 210.454,-2016.85 168.235,-2012.36"/>
<polygon fill="none" stroke="black" points="168.341,-2008.85 158.027,-2011.27 167.601,-2015.81 168.341,-2008.85"/>
</g>
<!-- \\CUser -->
<g id="node46" class="node"><title>\\CUser</title>
<a xlink:href="classes.CUser.html" xlink:title="CUser" target="_parent">
<polygon fill="none" stroke="black" points="381,-2320 327,-2320 327,-2284 381,-2284 381,-2320"/>
<text text-anchor="middle" x="354" y="-2298.6" font-family="Courier,monospace" font-size="11.00">CUser</text>
</a>
</g>
<!-- \\CUser&#45;&gt;CEntity -->
<g id="edge87" class="edge"><title>\\CUser&#45;&gt;CEntity</title>
<path fill="none" stroke="black" d="M326.774,-2300.55C284.828,-2298.24 201.946,-2293.67 148.572,-2290.73"/>
<polygon fill="none" stroke="black" points="148.489,-2287.22 138.311,-2290.17 148.103,-2294.21 148.489,-2287.22"/>
</g>
<!-- \\CWarehouseWrapper -->
<g id="node47" class="node"><title>\\CWarehouseWrapper</title>
<a xlink:href="classes.CWarehouseWrapper.html" xlink:title="CWarehouseWrapper" target="_parent">
<polygon fill="none" stroke="black" points="419.5,-52 288.5,-52 288.5,-16 419.5,-16 419.5,-52"/>
<text text-anchor="middle" x="354" y="-30.6" font-family="Courier,monospace" font-size="11.00">CWarehouseWrapper</text>
</a>
</g>
<!-- CMongoDataWrapper -->
<g id="node119" class="node"><title>CMongoDataWrapper</title>
<ellipse fill="none" stroke="black" cx="98" cy="-34" rx="94.6714" ry="18"/>
<text text-anchor="middle" x="98" y="-29.4" font-family="Times,serif" font-size="14.00" fill="gray">CMongoDataWrapper</text>
</g>
<!-- \\CWarehouseWrapper&#45;&gt;CMongoDataWrapper -->
<g id="edge89" class="edge"><title>\\CWarehouseWrapper&#45;&gt;CMongoDataWrapper</title>
<path fill="none" stroke="black" d="M288.248,-34C262.347,-34 231.856,-34 203.004,-34"/>
<polygon fill="none" stroke="black" points="202.877,-30.5001 192.877,-34 202.877,-37.5001 202.877,-30.5001"/>
</g>
<!-- \\CWarehouseWrapperClient -->
<g id="node48" class="node"><title>\\CWarehouseWrapperClient</title>
<a xlink:href="classes.CWarehouseWrapperClient.html" xlink:title="CWarehouseWrapperClient" target="_parent">
<polygon fill="none" stroke="black" points="439.5,-700 268.5,-700 268.5,-664 439.5,-664 439.5,-700"/>
<text text-anchor="middle" x="354" y="-678.6" font-family="Courier,monospace" font-size="11.00">CWarehouseWrapperClient</text>
</a>
</g>
<!-- \\CWarehouseWrapperClient&#45;&gt;CDataWrapperClient -->
<g id="edge91" class="edge"><title>\\CWarehouseWrapperClient&#45;&gt;CDataWrapperClient</title>
<path fill="none" stroke="black" d="M268.422,-690.991C242.559,-693.74 214.045,-696.771 187.903,-699.55"/>
<polygon fill="none" stroke="black" points="187.204,-696.104 177.63,-700.642 187.944,-703.065 187.204,-696.104"/>
</g>
<!-- \\CWrapper -->
<g id="node49" class="node"><title>\\CWrapper</title>
<a xlink:href="classes.CWrapper.html" xlink:title="CWrapper" target="_parent">
<polygon fill="none" stroke="black" points="389,-160 319,-160 319,-124 389,-124 389,-160"/>
<text text-anchor="middle" x="354" y="-138.6" font-family="Courier,monospace" font-size="11.00">CWrapper</text>
</a>
</g>
<!-- \\CWrapper&#45;&gt;CStatusObject -->
<g id="edge93" class="edge"><title>\\CWrapper&#45;&gt;CStatusObject</title>
<path fill="none" stroke="black" d="M318.888,-151.541C301.254,-156.564 279.416,-162.928 260,-169 222.515,-180.722 180.444,-194.868 148.712,-205.74"/>
<polygon fill="none" stroke="black" points="147.533,-202.444 139.212,-209.002 149.807,-209.064 147.533,-202.444"/>
</g>
<!-- \\CWrapperClient -->
<g id="node50" class="node"><title>\\CWrapperClient</title>
<a xlink:href="classes.CWrapperClient.html" xlink:title="CWrapperClient" target="_parent">
<polygon fill="none" stroke="black" points="409.5,-268 298.5,-268 298.5,-232 409.5,-232 409.5,-268"/>
<text text-anchor="middle" x="354" y="-246.6" font-family="Courier,monospace" font-size="11.00">CWrapperClient</text>
</a>
</g>
<!-- \\CWrapperClient&#45;&gt;CStatusObject -->
<g id="edge95" class="edge"><title>\\CWrapperClient&#45;&gt;CStatusObject</title>
<path fill="none" stroke="black" d="M298.198,-244.175C260.42,-240.159 209.877,-234.786 169.158,-230.458"/>
<polygon fill="none" stroke="black" points="169.344,-226.958 159.03,-229.381 168.604,-233.919 169.344,-226.958"/>
</g>
</g>
</svg>
